<?xml version="1.0" encoding="UTF-8" standalone="no"?>
<!DOCTYPE svg PUBLIC "-//W3C//DTD SVG 1.1//EN" "http://www.w3.org/Graphics/SVG/1.1/DTD/svg11.dtd">
<svg width="100%" height="100%" viewBox="0 0 232 127" version="1.1" xmlns="http://www.w3.org/2000/svg" xmlns:xlink="http://www.w3.org/1999/xlink" xml:space="preserve" xmlns:serif="http://www.serif.com/" style="fill-rule:evenodd;clip-rule:evenodd;stroke-linejoin:round;stroke-miterlimit:2;">
    <g transform="matrix(1,0,0,1,-42.679571,-47)">
        <g transform="matrix(1,0,0,1,-195,-146)">
            <path d="M245,193C245,193 227.881,286.565 246,316L272,317C272,317 251.477,231.479 259,216C259,216 288.983,311.415 308,317L326,318C326,318 297.875,239.513 309,199L296,198C296,198 287.66,251.982 305,291C305,291 264.206,235.898 266,196L245,193Z" style="fill:rgb(11,132,223);"/>
            <path d="M320,218C320,218 313.811,304.167 346,318C378.189,331.833 366.989,211.099 369,193L354,193C354,193 367.29,302.699 346,301C334.643,300.094 330.026,238.52 330,218L320,218Z" style="fill:rgb(11,132,223);"/>
            <path d="M377,217C377,217 375.346,314.997 400,319.101C424.654,323.206 421.429,205.581 423,193L407,193C407,193 415.883,296 401,296C380.117,296 390.854,229.962 389,218" style="fill:rgb(11,132,223);"/>
            <path d="M455,234.103L469,234C469,234 466.833,193 449,193C431.167,193 426,231.888 426,256.103C426,280.318 433.891,319.222 445,319.206C465.067,319.177 469,284.664 469,267L458,268C458,268 458.619,305 450,305C441.381,305 436,276.409 436,255.5C436,234.591 439.705,206.896 448,207C453.295,207.066 458,217.8 455,234.103Z" style="fill:rgb(11,132,223);"/>
        </g>
    </g>
</svg>
